<?xml version="1.0" encoding="UTF-8"?>
<svg width="52px" height="92px" viewBox="0 0 52 92" version="1.1" xmlns="http://www.w3.org/2000/svg" xmlns:xlink="http://www.w3.org/1999/xlink">
    <!-- Generator: Sketch 3.8.1 (29687) - http://www.bohemiancoding.com/sketch -->
    <title>Shape</title>
    <desc>Created with Sketch.</desc>
    <defs></defs>
    <g id="Page-1" stroke="none" stroke-width="1" fill="none" fill-rule="evenodd">
        <g id="noun_1204480_cc" transform="translate(26.000000, 46.000000) rotate(-45.000000) translate(-26.000000, -46.000000) translate(-22.000000, -2.000000)" fill="#38711D">
            <path d="M93.7,29.8 L87.8,23.9 C87,23.1 85.6,22.9 84.6,23.5 C81.1,25.7 76.7,25.2 73.8,22.3 C70.9,19.4 70.4,14.9 72.6,11.5 C73.2,10.5 73.1,9.2 72.2,8.3 L66.3,2.4 C63.9,9.37916411e-13 59.9,9.37916411e-13 57.5,2.4 L42.5,17.4 L48.7,23.6 L45.1,27.2 L38.9,21 L2.4,57.5 C-8.52651283e-14,59.9 -8.52651283e-14,63.9 2.4,66.3 L29.9,93.8 C31.1,95 32.7,95.6 34.3,95.6 C35.9,95.6 37.5,95 38.7,93.8 L75.2,57.3 L69,51.1 L72.6,47.5 L78.8,53.7 L93.8,38.7 C96.1,36.2 96.1,32.2 93.7,29.8 L93.7,29.8 Z M48.5,30.7 L52.1,27.1 L58.8,33.8 L55.2,37.4 L48.5,30.7 L48.5,30.7 Z M65.3,47.5 L58.6,40.8 L62.2,37.2 L68.9,43.9 L65.3,47.5 L65.3,47.5 Z" id="Shape"></path>
        </g>
    </g>
</svg>